<?xml version="1.0" ?><!DOCTYPE svg PUBLIC '-//W3C//DTD SVG 1.1//EN' 'http://www.w3.org/Graphics/SVG/1.1/DTD/svg11.dtd'><svg viewBox="0 0 512 512" xmlns="http://www.w3.org/2000/svg" xmlns:xlink="http://www.w3.org/1999/xlink"><style>:root>svg{display:none}:root>svg:target{display:block}</style><svg viewBox="0 0 24 24" id="clock-watch-time-svgrepo-com" xmlns="http://www.w3.org/2000/svg"><style/><g id="a_icons" fill="#007cba" stroke="##007cba"><path d="M8.2 21h7.7c2.8 0 5.2-2.3 5.2-5.2V8.2C21 5.3 18.7 3 15.8 3H8.2C5.3 3 3 5.3 3 8.2v7.7C3 18.7 5.3 21 8.2 21zm0-16H11v1c0 .6.4 1 1 1s1-.4 1-1V5h2.8C17.6 5 19 6.4 19 8.2V11h-1c-.6 0-1 .4-1 1s.4 1 1 1h1v2.8c0 1.7-1.4 3.2-3.2 3.2H13v-1c0-.6-.4-1-1-1s-1 .4-1 1v1H8.2C6.4 19 5 17.6 5 15.8V13h1c.6 0 1-.4 1-1s-.4-1-1-1H5V8.2C5 6.4 6.4 5 8.2 5z"/><path d="M12.1 14.4c.2.4.5.6.9.6.1 0 .3 0 .4-.1.5-.2.7-.8.4-1.3l-.7-1.4 2.5-2.5c.4-.4.4-1 0-1.4s-1-.4-1.4 0l-3 3c-.3.3-.4.8-.2 1.2l1.1 1.9z"/></g></svg><svg data-name="Livello 1" viewBox="0 0 24 24" id="map-pin-svgrepo-com_(1)" xmlns="http://www.w3.org/2000/svg"><path d="M11.9 1a8.6 8.6 0 00-8.6 8.6c0 4.35 7.2 12.05 8.42 13.33a.24.24 0 00.35 0c1.22-1.27 8.42-9 8.42-13.33A8.6 8.6 0 0011.9 1zm0 11.67A3.07 3.07 0 1115 9.6a3.07 3.07 0 01-3.1 3.07z" fill="#007cba" stroke="##007cba" data-name="map pin"/></svg><svg viewBox="0 0 512 512" id="phone-receiver-svgrepo-com" xmlns="http://www.w3.org/2000/svg"><path d="M470.4 72.3l-86.6-55.1c-18.5-11.8-43.1-6.3-54.9 12.2L283.3 101c-11.7 18.4-6.3 43 12.1 54.8l26.4 16.9c-21.1 29.1-46.2 57.8-74.8 85.9-.1.1-.3.2-.4.3-24.3 23.7-49.1 44.8-73.9 62.9l-16.9-26.4C144 277 119.4 271.6 101 283.3l-71.6 45.6c-18.5 11.8-23.9 36.4-12.2 54.9l55.1 86.6C84.9 490.1 106 501 127.7 501c10 0 20.2-2.3 29.7-7.2 53.2-27.2 102.3-59.3 146.4-95.6 1.6-.7 111.6-83.9 190-240.8 15.2-30.3 5.3-66.7-23.4-85.1zm-12.9 66.5c-45.5 89-144.7 197.1-145.3 197.7-50.1 47-108.4 87.7-173.4 121-11.2 5.7-25.2 1.7-32-9l-54.5-85.6 69.8-44.4 17 26.5c5.9 9.2 15.4 15.6 26.1 17.6 10.8 2 21.7-1 30.9-6.9 27.5-17.6 111-89 159.6-159.6 6.2-9 8.9-20.1 6.9-30.9-2-10.7-8.4-20.2-17.6-26.1l-26.4-17L363 52.3l85.6 54.6c10.6 6.7 14.5 20.8 8.9 31.9z" fill="#007cba" stroke="##007cba"/></svg></svg>